<?xml version="1.0" encoding="UTF-8"?>
<svg version="1.1" xmlns="http://www.w3.org/2000/svg" width="800" height="800">
<path d="M0 0 C1.96224878 -0.0030267 3.92449639 -0.00691877 5.88674194 -0.01159257 C11.2372192 -0.02181457 16.58762902 -0.01970562 21.93811166 -0.01541197 C27.72493282 -0.01293413 33.51173818 -0.02197203 39.29855347 -0.02944946 C50.61992751 -0.04216949 61.9412778 -0.0439935 73.26265778 -0.0416492 C82.47024146 -0.03986274 91.67781795 -0.0416227 100.88540077 -0.04587364 C102.1982417 -0.04646883 103.51108263 -0.04706402 104.86370662 -0.04767724 C106.8623919 -0.04858524 108.86107719 -0.04949324 110.85976246 -0.0504096 C129.42669696 -0.05883107 147.99362886 -0.06318043 166.56056499 -0.05900288 C167.25952064 -0.0588465 167.95847628 -0.05869012 168.67861239 -0.05852901 C172.22062942 -0.05772331 175.76264643 -0.05687754 179.30466344 -0.05601571 C180.00803014 -0.05584462 180.71139684 -0.05567353 181.43607768 -0.05549726 C182.858454 -0.0551506 184.28083031 -0.05480207 185.70320663 -0.05445167 C207.82614543 -0.04909672 229.94904435 -0.05702177 252.07197571 -0.07548523 C276.96852863 -0.09623954 301.86505686 -0.10692137 326.76161891 -0.10290974 C339.92839101 -0.10100112 353.09512679 -0.10345209 366.26189232 -0.11762428 C377.47192797 -0.12956879 388.68190495 -0.13090867 399.89194145 -0.11883412 C405.60391897 -0.11296677 411.31578933 -0.11178631 417.02775955 -0.12383652 C422.27053638 -0.13476772 427.51311751 -0.13150687 432.75588546 -0.11757483 C434.63867544 -0.11494766 436.52148112 -0.11723106 438.40425559 -0.1253107 C448.13921876 -0.16414152 457.64565619 0.24700205 467.29806232 1.58096027 C468.55567048 1.75220845 468.55567048 1.75220845 469.83868487 1.92691619 C494.07698391 5.61761331 516.55898777 19.83301025 531.57173157 39.08882141 C550.11903431 64.43832943 552.45325379 90.92610009 552.4210968 121.3651886 C552.42436093 124.09516328 552.43057182 126.82512966 552.43658447 129.55509949 C552.4492631 136.17086731 552.45113373 142.78659441 552.44878421 149.40237233 C552.44699305 154.78658114 552.44876769 160.1707777 552.45300865 165.55498505 C552.45360384 166.32456811 552.45419903 167.09415117 552.45481225 167.88705494 C552.45602415 169.45104303 552.45723828 171.01503113 552.45845463 172.57901922 C552.46930401 187.21074584 552.46718015 201.84244936 552.46106979 216.47417727 C552.45590397 229.82026074 552.46715188 243.16627114 552.486168 256.51234016 C552.50560347 270.25951452 552.51379237 284.00665442 552.51004475 297.75384259 C552.50814121 305.4544015 552.5105369 313.15489826 552.52475929 320.85544586 C552.53674722 327.41180009 552.53799589 333.96805394 552.52596913 340.52440974 C552.52013157 343.86056363 552.52050321 347.1963864 552.53097153 350.53255081 C552.63365724 385.82604791 546.75432992 414.18649861 521.5839386 440.26069641 C506.86895639 454.90793223 487.61876265 464.11710351 467.1464386 467.26069641 C466.1006383 467.43273425 465.054838 467.60477209 463.97734678 467.78202319 C459.88951383 468.29279924 455.88455886 468.4017808 451.77378273 468.39212418 C450.54354778 468.39520313 450.54354778 468.39520313 449.2884596 468.39834428 C446.54047134 468.40399829 443.79253345 468.402559 441.04454041 468.40113831 C439.05421083 468.40372287 437.06388178 468.40673628 435.07355344 468.41014171 C429.60382501 468.41820446 424.1341097 468.42000088 418.66437602 468.42073917 C412.76500138 468.42259103 406.86563353 468.43013911 400.96626282 468.43687439 C387.392415 468.45116192 373.81856819 468.45698401 360.24471442 468.46156633 C353.53241077 468.46390418 346.82010798 468.46750708 340.107805 468.47126171 C317.11688253 468.48409689 294.12596053 468.49481529 271.13503456 468.49826431 C269.69230583 468.49848594 268.2495771 468.49870773 266.80684837 468.49892966 C265.36069148 468.4991503 263.9145346 468.49937079 262.46837771 468.49959111 C259.56728212 468.50003366 256.66618653 468.50048077 253.76509094 468.50093079 C253.04579019 468.50104018 252.32648943 468.50114957 251.58539168 468.50126227 C228.27610916 468.50489074 204.96685779 468.52080299 181.65758719 468.54412115 C156.9961234 468.56874675 132.3346774 468.58243845 107.67320096 468.58363223 C104.96309177 468.58380367 102.25298258 468.5840191 99.54287338 468.58426666 C98.87560024 468.58432243 98.2083271 468.5843782 97.52083357 468.58443566 C87.46878223 468.58551285 77.41676105 468.59485526 67.36471939 468.60845184 C55.92086151 468.62387657 44.47705699 468.62895934 33.03319068 468.62071374 C27.19822799 468.61681545 21.36337269 468.61769668 15.52842331 468.63177109 C10.17756103 468.64455932 4.82688628 468.64326942 -0.52397592 468.63118038 C-2.45070693 468.62923186 -4.37745144 468.63226228 -6.3041635 468.64102474 C-37.56934495 468.77411188 -64.68299355 460.23252404 -87.4785614 438.13569641 C-112.72922603 412.77248982 -116.16404148 381.10281148 -116.1282196 347.04853821 C-116.13148363 344.30708893 -116.13769451 341.56564793 -116.14370728 338.82420349 C-116.156386 332.18069724 -116.15825656 325.53723154 -116.15590701 318.89371523 C-116.15411602 313.48756802 -116.15589014 308.081433 -116.16013145 302.67528725 C-116.16072664 301.9026401 -116.16132183 301.12999295 -116.16193506 300.33393225 C-116.16314695 298.76374143 -116.16436108 297.1935506 -116.16557743 295.62335978 C-116.17642665 280.93395943 -116.17430291 266.2445821 -116.16819259 251.55518047 C-116.16302567 238.15345609 -116.1742776 224.75180445 -116.19329081 211.35009446 C-116.21272067 197.54755435 -116.22091622 183.74504855 -116.21716756 169.94249469 C-116.21526331 162.2101097 -116.21766675 154.47778657 -116.2318821 146.74541283 C-116.24386276 140.16267971 -116.24512658 133.58004657 -116.23309193 126.99731191 C-116.22724965 123.64710544 -116.22763591 120.29722902 -116.23809433 116.94701195 C-116.2873339 99.93710801 -116.30659571 82.65269581 -110.1660614 66.51069641 C-109.91259949 65.82225647 -109.65913757 65.13381653 -109.397995 64.42451477 C-99.60580972 38.9102036 -79.68994072 19.26105238 -54.99760437 8.16108704 C-37.31304004 0.73445606 -18.89511135 -0.04174069 0 0 Z M17.1464386 68.26069641 C20.47509888 70.92362463 23.46919209 73.19266819 27.04096985 75.40522766 C28.45539368 76.28501282 28.45539368 76.28501282 29.89839172 77.18257141 C30.90837219 77.80647766 31.91835266 78.43038391 32.9589386 79.07319641 C35.13216784 80.42337288 37.30534345 81.77363568 39.47846985 83.12397766 C40.58786926 83.81185364 41.69726868 84.49972961 42.84028625 85.20845032 C47.95002522 88.38024663 53.0479646 91.57083659 58.1464386 94.76069641 C60.14637449 96.01079898 62.14637469 97.26079867 64.1464386 98.51069641 C148.1464386 151.01069641 148.1464386 151.01069641 151.14912415 152.8874054 C153.14013572 154.13176736 155.13118363 155.37607117 157.12226868 156.62031555 C163.31909225 160.49288624 169.51445581 164.36778105 175.7089386 168.24409485 C178.74272331 170.14115835 181.7783788 172.03519535 184.81440735 173.92866516 C187.97109695 175.89778808 191.1212738 177.87592079 194.25971985 179.87397766 C204.62428946 186.4486251 212.51956012 189.92765438 225.1464386 188.26069641 C231.96050464 186.14823765 237.84612924 182.85284515 243.7714386 178.94819641 C245.43626935 177.87445158 247.10166115 176.8015763 248.76753235 175.72944641 C249.64006653 175.16483704 250.51260071 174.60022766 251.41157532 174.01850891 C256.18931264 170.94765472 261.01354004 167.95145885 265.8339386 164.94819641 C267.87960552 163.67100322 269.92517763 162.39365816 271.97065735 161.11616516 C272.99207825 160.47856262 274.01349915 159.84096008 275.06587219 159.18403625 C280.09390346 156.04480418 285.120092 152.9026249 290.1464386 149.76069641 C292.14642945 148.51068178 294.14642946 147.26068179 296.1464386 146.01069641 C297.1364386 145.39194641 298.1264386 144.77319641 299.1464386 144.13569641 C356.14643859 108.51069642 356.14643859 108.51069642 359.1476593 106.63496399 C361.14362688 105.38746394 363.13955799 104.13990553 365.13545227 102.89228821 C370.19684776 99.72855459 375.25891254 96.5659008 380.32221985 93.40522766 C385.31216066 90.28997166 390.30031555 87.17188002 395.28657532 84.05073547 C397.19408649 82.85679046 399.10196463 81.66343155 401.01020813 80.47065735 C403.68239414 78.79931628 406.35226552 77.1243438 409.0214386 75.44819641 C409.81848206 74.95037659 410.61552551 74.45255676 411.4367218 73.93965149 C412.52666443 73.25358826 412.52666443 73.25358826 413.6386261 72.55366516 C414.27139465 72.15687561 414.90416321 71.76008606 415.55610657 71.35127258 C417.30795478 70.22135092 417.30795478 70.22135092 419.1464386 68.26069641 C286.4864386 68.26069641 153.8264386 68.26069641 17.1464386 68.26069641 Z M-47.8535614 108.26069641 C-47.96810682 141.94322872 -48.05616098 175.6257124 -48.10888805 209.30839635 C-48.11514128 213.28859044 -48.12161292 217.26878415 -48.1282196 221.24897766 C-48.12953116 222.04133347 -48.13084271 222.83368927 -48.132194 223.65005586 C-48.1539266 236.46513081 -48.19333623 249.28009315 -48.23932538 262.09510139 C-48.28614988 275.2530167 -48.31386944 288.41087319 -48.32400388 301.5688684 C-48.33085065 309.68241309 -48.35244351 317.79563943 -48.39314374 325.90908608 C-48.42279893 332.13965739 -48.42582045 338.36998803 -48.41909981 344.60062027 C-48.42047211 347.14989044 -48.43037452 349.69917299 -48.44958878 352.24837112 C-48.78202661 373.28383794 -48.78202661 373.28383794 -38.8535614 391.26069641 C-36.81299074 392.98418193 -36.81299074 392.98418193 -34.6035614 394.38569641 C-33.89715515 394.86264954 -33.1907489 395.33960266 -32.4629364 395.83100891 C-26.03815679 399.35117259 -20.62630947 400.70627859 -13.40636063 400.64380646 C-12.59030566 400.64876597 -11.7742507 400.65372549 -10.93346679 400.65883529 C-8.20535744 400.67176458 -5.47773968 400.66341521 -2.74961853 400.65510559 C-0.7713587 400.65999576 1.20689827 400.66618615 3.18515038 400.67356348 C8.6167066 400.68997025 14.04811774 400.68764352 19.47969007 400.68218851 C25.33942924 400.67951922 31.19912964 400.69404829 37.05885315 400.70628357 C48.5373951 400.72734442 60.01588655 400.73187802 71.49444553 400.73009568 C80.82482175 400.72878832 90.15518351 400.73254318 99.48555756 400.74002075 C100.82659271 400.74107109 102.16762786 400.74211871 103.50866301 400.74316362 C104.50721137 400.74394263 104.50721137 400.74394263 105.52593243 400.74473738 C106.19285866 400.74525753 106.85978489 400.74577767 107.54692101 400.74631357 C108.21497473 400.74683756 108.88302845 400.74736156 109.57132622 400.74790143 C128.35902724 400.76248319 147.14672262 400.77076794 165.93442917 400.76615143 C166.99664243 400.7658935 166.99664243 400.7658935 168.08031455 400.76563035 C171.66935605 400.76474148 175.25839754 400.76379667 178.84743902 400.76283234 C179.56021697 400.76264131 180.27299493 400.76245028 181.00737221 400.76225346 C182.44878263 400.76186636 183.89019304 400.76147603 185.33160346 400.76108248 C207.75527557 400.7551137 230.17884445 400.77054591 252.60249329 400.8026886 C277.80398181 400.8387826 303.00540487 400.85809586 328.20692086 400.85314989 C330.89529943 400.85267993 333.583678 400.85226967 336.27205658 400.85189819 C337.26495331 400.85174461 337.26495331 400.85174461 338.27790855 400.85158793 C348.26136358 400.85039413 358.24472431 400.86241323 368.22815704 400.88104248 C379.58616448 400.90205618 390.94401349 400.90564681 402.30202743 400.88674289 C408.09593814 400.87758541 413.88955347 400.87644283 419.68344116 400.89709854 C424.9909487 400.9158108 430.29791897 400.91130168 435.60540608 400.88855273 C437.52192307 400.88436766 439.43848127 400.88856379 441.35495469 400.90214866 C454.31742143 400.98775007 464.89369934 400.17044449 475.0839386 391.19819641 C486.30291395 378.63946669 484.83388002 364.37647969 484.71406555 348.48042297 C484.71265387 345.8579969 484.71344941 343.23556885 484.71627808 340.61314392 C484.71888855 334.98524762 484.70332025 329.35764316 484.67508888 323.72982025 C484.63429907 315.59317809 484.62141593 307.45667576 484.61514892 299.31994244 C484.6042299 286.11586917 484.57102095 272.91195112 484.52363586 259.70796204 C484.47767813 246.88830843 484.44231673 234.06869712 484.4210968 221.24897766 C484.41978318 220.45758952 484.41846957 219.66620138 484.41711614 218.85083178 C484.41059053 214.8803167 484.40427209 210.90980133 484.39805663 206.93928576 C484.34629816 174.04630968 484.25829844 141.15352388 484.1464386 108.26069641 C482.40372059 109.2033575 480.66196492 110.14779781 478.92060852 111.0929718 C477.46554146 111.88158348 477.46554146 111.88158348 475.9810791 112.68612671 C472.04067584 114.87491911 468.24829284 117.26009789 464.4589386 119.69819641 C462.80306905 120.75348112 461.14679956 121.80813846 459.4901886 122.86225891 C458.6239386 123.41429993 457.7576886 123.96634094 456.8651886 124.53511047 C452.07886501 127.5729818 447.26829815 130.5719782 442.4589386 133.57319641 C441.45065002 134.20282288 440.44236145 134.83244934 439.40351868 135.4811554 C437.34477558 136.7667076 435.28593726 138.05210733 433.227005 139.33735657 C428.19897373 142.47658865 423.17278519 145.61876792 418.1464386 148.76069641 C416.14644775 150.01071105 414.14644774 151.26071104 412.1464386 152.51069641 C410.6614386 153.43882141 410.6614386 153.43882141 409.1464386 154.38569641 C376.1464386 175.01069641 376.1464386 175.01069641 373.1452179 176.88642883 C371.14925031 178.13392888 369.15331921 179.38148729 367.15742493 180.62910461 C362.09602944 183.79283824 357.03396466 186.95549202 351.97065735 190.11616516 C342.84979512 195.81091671 333.73294173 201.51124184 324.6464386 207.26069641 C315.50371915 213.04492572 306.33649339 218.78941924 297.1542511 224.51069641 C293.26498036 226.93413643 289.38536991 229.37186371 285.5136261 231.82319641 C256.60179469 250.06057049 227.75141692 260.46681791 193.3105011 252.79975891 C174.7077325 248.16585626 158.90181855 237.22960055 142.9823761 226.99897766 C137.10819246 223.22610391 131.19529256 219.51746135 125.2714386 215.82319641 C124.27797424 215.20323792 123.28450989 214.58327942 122.26094055 213.9445343 C120.24102504 212.68439006 118.22092345 211.42454405 116.20063782 210.16499329 C111.07681009 206.97028055 105.95500746 203.77232935 100.8339386 200.57319641 C99.83120911 199.9467926 98.82847961 199.32038879 97.79536438 198.67500305 C90.9694637 194.4078368 84.15939038 190.11630058 77.35688782 185.81196594 C68.00387134 179.89828101 58.6139473 174.04365617 49.227005 168.18403625 C44.19897373 165.04480418 39.17278519 161.9026249 34.1464386 158.76069641 C32.14644775 157.51068178 30.14644774 156.26068179 28.1464386 155.01069641 C16.1464386 147.51069641 16.1464386 147.51069641 13.14570618 145.63520813 C11.14818417 144.3867772 9.15062564 143.13840468 7.1530304 141.89009094 C2.11481426 138.74156523 -2.92273868 135.59198748 -7.95903015 132.44038391 C-13.92137179 128.70980736 -19.88649592 124.98371202 -25.8535614 121.26069641 C-26.86869812 120.62696106 -27.88383484 119.99322571 -28.92973328 119.34028625 C-31.8819239 117.49869506 -34.83614058 115.66040288 -37.7910614 113.82319641 C-38.69171326 113.26100403 -39.59236511 112.69881165 -40.52030945 112.11958313 C-41.34055603 111.61056458 -42.16080261 111.10154602 -43.00590515 110.57710266 C-43.72769958 110.12794495 -44.44949402 109.67878723 -45.19316101 109.21601868 C-46.67875482 108.17757918 -46.67875482 108.17757918 -47.8535614 108.26069641 Z " fill="#FFFFFF" transform="translate(181.8535614013672,165.7393035888672)"/>
</svg>
